# xmcd CD database file generated by Grip 3.3.1
# 
# Track frame offsets:
#       150
#       18325
#       38784
#       59703
#       81254
#       100118
#       120599
#       137456
#       164315
# 
# Disc length: 2434 seconds
# 
# Revision: 1
# Processed by: cddbd v1.5.2PL0 Copyright (c) Steve Scherf et al.
# Submitted via: Grip 3.3.1
# 
DISCID=6e098009
DTITLE=Vocaloid - SIGNALOID SOUNDS /シグナルP
DYEAR=2008
DGENRE=Other
TTITLE0=CHU！して！
TTITLE1=Transmit
TTITLE2=サンドリヨン
TTITLE3=ライバル
TTITLE4=音のリズム♪
TTITLE5=怪盗KAITO～今宵も君を求めて～
TTITLE6=repeated regret
TTITLE7=想いをこめて
TTITLE8=リンリンシグナルACT.2
EXTD=YEAR: 2008
EXTT0=
EXTT1=
EXTT2=
EXTT3=
EXTT4=
EXTT5=
EXTT6=
EXTT7=
EXTT8=
PLAYORDER=
